<?xml version="1.0" encoding="utf-8"?>
<!-- Generator: Adobe Illustrator 18.0.0, SVG Export Plug-In . SVG Version: 6.00 Build 0)  -->
<!DOCTYPE svg PUBLIC "-//W3C//DTD SVG 1.1//EN" "http://www.w3.org/Graphics/SVG/1.1/DTD/svg11.dtd">
<svg version="1.1" id="Layer_1" xmlns="http://www.w3.org/2000/svg" xmlns:xlink="http://www.w3.org/1999/xlink" x="0px" y="0px"
	 viewBox="0 0 122.3 100" enable-background="new 0 0 122.3 100" xml:space="preserve">
<path d="M45.4,62c-1.1-8.1-9.2-16.2-17.2-16.1c2,1.8,3.7,3.9,5.2,6.1c2.1,3.2,3.3,7.1,5.6,10.1c0.1,0.2,0.2,0.4,0.3,0.6
	C41.2,62.4,43.3,62.2,45.4,62z M25.4,80.2c-8.7-2.6-14.7-8.6-20.3-15.7C-1.6,56-3.2,41.3,9.3,44.7c3-3.8,9.9-4,14-2
	c0.2,0.1,0.3,0.2,0.5,0.2c0,0,0,0,0,0c8.7-3.7,18.3,2.4,22.8,10.8c4.9-6.5,17.6-5.3,24.3-5.2c8.6,0.1,16.8,0,24.9,3.3
	c8.7,3.6,13.3,13.2,18.3,20.7c6,9,15.1,21.3-0.7,24.7c-8.6,1.9-18.8,4.6-27.2,1.3C77,95,73.7,84.1,62.8,82.9
	C50.4,81.5,37.6,83.8,25.4,80.2z M34.5,63.2c-2.8-4.4-4.3-9.5-8.3-13.2c-2.3-2.1-4.6-3.8-7.7-4.1c-1.3-0.1-3.9-0.5-5.6,0.2
	C22,50.4,23,63.3,34.5,63.2z M30.8,77.1c8.8,1.4,17.6,1.1,26.5,1.3c12.4,0.3,17,5.4,26.2,12.9c8.4,6.8,16.4,3.7,25.8,2.5
	c1.8-0.2,11.7-0.7,9.7-5.5c-1.3-3.1-3-5.5-4.8-8.1C105,66.8,98.6,53.5,80.9,52.7c-7.7-0.3-16-0.8-23.7,0.3c-2.1,0.3-4.2,0.5-6.1,1.4
	c-0.7,4.1,0.3,6.5,3,7.4c1.1,0.1,2.3,0.2,3.4,0.3c0.3,0,0.5,0,0.8-0.1c0.9,0,1.8-0.1,2.7-0.1c4.8-0.4,8.9-0.8,13.4,0.9
	c2,0.7,0.5,4-1.2,4c-0.3,0-0.5,0-0.7,0c-0.4,0-0.6-0.1-0.9-0.2c-2.5-0.3-8-0.3-13.4-0.9c-0.4,0.4-0.9,0.6-1.5,0.5
	c-9.3-1.3-23.2,4.6-31.2-0.7c-4.4-3-5.9-6.8-9.2-10.7c-0.3-0.3-14-11.1-13.3-4.6c0.5,4.7,2.2,8.1,5.2,11.4
	C14.8,69.1,20.6,75.5,30.8,77.1z"/>
<g>
	<path d="M65.7,34.3c-0.2,0-0.3,0-0.5-0.1c0,0,0,0-0.1,0c-5.1,4.2-15.3-0.1-19.5-3.8c-8.6-7.6-3.3-20-9.7-28.6
		c-0.6-0.8,0.8-2.4,1.6-1.5c5.3,6.2,14.3,7.1,20.9,11.4c3,2,6,5.1,7.2,8.5c1.4,4.1,0.5,7.7,0.8,11.9c2.7,2.6,6.8,3,10.1,4.7
		c0.9,0.5-0.3,2.3-1.3,1.8C72.2,36.9,68.5,36.5,65.7,34.3z M52.6,26.5c-4.1-3.6-4.3-8.3-6.8-12.8c-0.5-0.9,1-2.5,1.6-1.5
		c2.4,4.3,2.8,8.8,6.5,12.5c3,3,6.9,4.9,10.7,6.8c-0.1-3.9,0.7-7.3-1.2-11.3c-1.9-4.1-6.2-6.9-10.1-9C49,8.9,44.2,7.8,40.2,5.3
		c1.6,5,1,10.3,2.5,15.9c1.1,4.5,4.3,7.8,8.1,10.1c2.5,1.5,9,3.2,12.5,1.8C59.5,31.3,55.9,29.3,52.6,26.5z"/>
</g>
</svg>
