<?xml version="1.0" encoding="utf-8"?>
<!-- Generator: Adobe Illustrator 18.0.0, SVG Export Plug-In . SVG Version: 6.00 Build 0)  -->
<!DOCTYPE svg PUBLIC "-//W3C//DTD SVG 1.1//EN" "http://www.w3.org/Graphics/SVG/1.1/DTD/svg11.dtd">
<svg version="1.1" id="Layer_1" xmlns="http://www.w3.org/2000/svg" xmlns:xlink="http://www.w3.org/1999/xlink" x="0px" y="0px"
	 viewBox="315.8 0 649.2 800.8" enable-background="new 315.8 0 649.2 800.8" xml:space="preserve">
<g>
	<path d="M924.8,548.8c-16,58.4-92,41.6-76-15.2c-25.6,18.4-57.6,11.2-60.8-30.4c-16.8,16.8-38.4-0.8-53.6-8
		c-19.2-16,19.2-29.6,0-45.6c-65.6-2.4-34.4,42.4-30.4,84c-46.4,49.6-32,184.8-30.4,259.2c28.8-0.8,21.6-8.8,45.6,0
		c-44,10.4-88.8,3.2-152,8c14.4-14.4,13.6-6.4,8-30.4c21.6-6.4,20,10.4,38.4,8c17.6-53.6,2.4-140,8-205.6
		c-38.4-7.2-40-88.8-15.2-114.4c-59.2-32-39.2,36-60.8,60.8c-15.2,2.4-24-1.6-23.2-15.2c-7.2,24.8-2.4,50.4-53.6,45.6
		c22.4,46.4-27.2,69.6-60.8,84c-83.2-83.2,100.8-234.4,212-192c0,0,38.4,22.4,30.4,23.2c11.2,0,34.4-27.2,45.6-30.4
		C795.2,408.8,908.8,472,924.8,548.8z"/>
	<path d="M704,228.8c45.6-53.6,104.8-92.8,168-129.6c18.4,16.8,36.8,34.4,38.4,68.8c-24,6.4-23.2-12-38.4-15.2
		c9.6,23.2,5.6,29.6-8,45.6c-26.4,14.4-24.8-5.6-45.6-15.2c-3.2,18.4,13.6,16.8,8,38.4c-27.2,5.6-53.6,52.8-76,38.4
		c-25.6,45.6-75.2,67.2-99.2,114.4c58.4-51.2,136-148.8,289.6-129.6c23.2,12.8,32.8,70.4,15.2,99.2c-28,3.2-24-24-24-47.2
		c-25.6,2.4-12,43.2-38.4,45.6c-16-2.4-15.2-20-23.2-30.4c-8.8,1.6-6.4,13.6-8,23.2c-73.6-13.6-110.4,43.2-160,15.2
		c-18.4,16.8-35.2,36-45.6,60.8c50.4-23.2,229.6-97.6,296.8-15.2c0.8,33.6-18.4,47.2-23.2,76c-18.4-7.2-20-30.4-53.6-23.2
		c0-15.2,0-30.4,0-45.6c-10.4,4.8-14.4,16-15.2,30.4c-17.6,0-22.4-12.8-45.6-8c0-10.4,0-20,0-30.4c-9.6,44-85.6,36-106.4,15.2
		c-27.2,3.2-41.6,19.2-60.8,30.4c-26.4-1.6-28.8-27.2-53.6-30.4c-20.8-5.6-15.2,15.2-30.4,15.2c-29.6-31.2-92.8,33.6-114.4-23.2
		c-6.4,26.4-27.2,39.2-45.6,53.6c-13.6-7.2-12.8-28-30.4-30.4c-6.4,21.6,10.4,20,8,38.4c-10.4,4.8-18.4,12-29.6,16
		C202.4,380.8,555.2,328,620,411.2c10.4-12.8-30.4-40-45.6-53.6c-13.6-0.8-16,9.6-30.4,8c-26.4,16.8-7.2-18.4-23.2-23.2
		c-20-5.6-72,27.2-68.8-23.2c-18.4,13.6-44,20-68.8,8c-4-24,11.2-29.6,15.2-45.6c-27.2,0.8-21.6,34.4-30.4,53.6
		c-12.8,0-25.6,0-38.4,0c-1.6-36.8-1.6-72.8,15.2-91.2c133.6-1.6,193.6,70.4,266.4,129.6c-6.4-40-31.2-64.8-60.8-60.8
		c-7.2-32.8-13.6-21.6-38.4-30.4c-2.4-12,7.2-12.8,8-23.2c-12-1.6-54.4-2.4-53.6-38.4c-42.4,23.2-56.8-23.2-84-38.4
		c8.8-31.2,29.6-52,53.6-68.8c97.6,39.2,144,130.4,183.2,228.8c4.8-14.4,4.8-38.4,0-53.6s-20.8-14.4-30.4-30.4
		c-5.6-9.6,1.6-27.2,0-30.4c-11.2-20.8-45.6-21.6-23.2-45.6c-30.4,3.2-46.4-33.6-30.4-53.6c-43.2,7.2-44-27.2-60.8-45.6
		c52.8-105.6,135.2,20,137.6,100C631.2,132,584.8,72,612,0c36,14.4,29.6,10.4,68.8,0c16.8,9.6,32,87.2-8,84
		c28,52.8-16.8,112-15.2,183.2c43.2-80,68-279.2,190.4-205.6C808,121.6,746.4,155.2,704,228.8z"/>
</g>
</svg>
