<?xml version="1.0" encoding="utf-8"?>
<!-- Generator: Adobe Illustrator 18.0.0, SVG Export Plug-In . SVG Version: 6.00 Build 0)  -->
<!DOCTYPE svg PUBLIC "-//W3C//DTD SVG 1.1//EN" "http://www.w3.org/Graphics/SVG/1.1/DTD/svg11.dtd">
<svg version="1.1" id="Layer_1" xmlns="http://www.w3.org/2000/svg" xmlns:xlink="http://www.w3.org/1999/xlink" x="0px" y="0px"
	 viewBox="0 0 85.4 100" enable-background="new 0 0 85.4 100" xml:space="preserve">
<g>
	<path d="M22.3,61.2c0,0,1.6-0.8,1.8-3.8c0.1-3,0.3-3.5,0.3-3.5s0.9-4.7,4.7-4.7h39.8h6.3v10.6h10.3V16.5l-10.2,0.1v10.1H55V12.6
		H43.4v14.1l-17,0.3c0,0-26.8-0.5-26,28.9l-0.3,3c0,0-0.8,2.1,2.1,2.3C5.1,61.2,22.3,61.2,22.3,61.2z"/>
	<path d="M63.5,1.8c-4.4,1.7-7.2,1.3-8.8,1.5C54,1.2,51.8,0,49.2,0c-2.6,0-4.9,1.2-5.6,3.3c-1.5-0.2-4.5,0.3-8.9-1.5
		C28.7-0.4,22.1,1.8,22.1,5c0,3.2,9.5,5.5,15.3,3c3.2-1.4,5.1-1.3,6.2-1.3c0.8,2.1,3.1,3.2,5.7,3.2c2.6,0,4.7-1.1,5.4-3.2
		c1.1,0,3,0,6,1.3c5.8,2.5,15.3,0.2,15.3-3C76.1,1.8,69.4-0.4,63.5,1.8z"/>
	<path d="M18.7,86.2c2.4,7.1-2.6,13.8-7.2,13.8c-4.6,0-10.1-6.3-7.1-13.2c4.5-10.1,5.6-23.7,8.3-20C15.4,70.7,14.4,73.5,18.7,86.2z"
		/>
</g>
</svg>
