<?xml version="1.0" encoding="utf-8"?>
<!-- Generator: Adobe Illustrator 18.0.0, SVG Export Plug-In . SVG Version: 6.00 Build 0)  -->
<!DOCTYPE svg PUBLIC "-//W3C//DTD SVG 1.1//EN" "http://www.w3.org/Graphics/SVG/1.1/DTD/svg11.dtd">
<svg version="1.1" id="Layer_1" xmlns="http://www.w3.org/2000/svg" xmlns:xlink="http://www.w3.org/1999/xlink" x="0px" y="0px"
	 viewBox="0 0 105 100" enable-background="new 0 0 105 100" xml:space="preserve">
<g>
	<path d="M81.7,43.5c-7.4,3.6-6.6,9.4-6.5,9.9c0,0,0,0,0,0c-0.6,0.5-1.2,0.9-1.7,1.4c-0.5,0.5-1,1-1.5,1.5c-1,1.1-1.8,2.2-2.6,3.3
		c-0.7,1-1.3,2.1-1.9,3.2c0.4-2.1,0.2-3.9,0.2-4.1c0.5-0.3,3.6-2.2,2.6-6.3c-0.8-3.6-5.7-7.5-12.2-6.6c0,0,3.4,1.2,2.6,5.5
		c-0.9,4.9,2.1,8.6,6.7,7.6c0,0.5,0.2,2.9-0.5,5.4c-0.4,0.9-0.8,1.9-1.1,2.9c-0.5,1.5-0.8,3-1,4.6c-0.3-0.7-0.6-1.4-1-2.1
		c-0.2-0.4-0.5-0.7-0.7-1c-0.5-0.9-0.7-1.9-0.8-2.1c1.9,0.1,2.7-1.7,1.9-3.5c-0.8-1.6,0.4-2.4,0.4-2.4c-2.7,0.2-4.2,2.1-4.2,3.6
		c0.1,1.7,1.5,2.2,1.7,2.3c0,0.1,0.1,0.8,0.5,1.6c-0.3-0.4-0.7-0.8-1.1-1.1c-0.4-0.4-0.9-0.8-1.4-1.1c-0.2-0.2-0.5-0.3-0.8-0.5
		c-0.3-0.2-0.5-0.3-0.8-0.4c0,0,0,0,0,0c0-0.2-0.3-2.6-3.6-3.4c-2.9-0.7-7.2,0.6-8.6,4.3c0,0,2-1.3,4.7,0.4c3.2,2,6.8,1.6,7.5-1
		c0.2,0.1,0.5,0.3,0.7,0.4c0.2,0.2,0.5,0.3,0.7,0.5c0.5,0.4,0.9,0.7,1.3,1.1c0.8,0.8,1.5,1.7,2,2.7c0.4,0.8,0.8,1.6,1,2.4
		c-0.3-0.3-0.5-0.4-0.6-0.4c0-0.4-0.3-2.2-2.6-2.9c-2.1-0.6-5.5,0.6-6.7,3.8c0,0,1.5-1.2,3.6,0.3c2.4,1.7,5.1,1.4,5.8-1
		c0.1,0.1,0.4,0.3,0.7,0.7c0,0,0,0.1,0,0.1c0.1,0.4,0.1,0.8,0.2,1.2c0,0.4-0.1,0.8-0.1,1.2c-0.1,2.7,0.2,5.4,0.8,8.1c0,0,0,0,0,0.1
		c0.2,0.6,0.8,0.9,1.5,0.8c0.7-0.1,1.1-0.7,0.9-1.3c-0.7-2.5-1.2-5.1-1.2-7.6c0-0.1,0-0.1,0-0.2c0.4-1,1-1.7,1.3-2
		c3,5.3,9.9,4.9,14.4-0.4c3.9-4.5,8.3-2.4,8.3-2.4c-5-7.1-13.7-8.2-18.5-5.8c-5.1,2.6-4.6,7.1-4.5,8.1c-0.1,0.1-0.6,0.5-1,1.3
		c0-2.1,0.3-4.2,0.8-6.3c0.7-2.5,1.7-5,3.1-7.3c0.7-1.2,1.5-2.3,2.4-3.3c0.4-0.5,0.9-1.1,1.4-1.6c0.4-0.5,0.9-0.9,1.4-1.3
		c3.5,6,12.3,5.2,18.6-1.2c5.4-5.5,11-3.2,11-3.2C99.2,41.5,88,40.5,81.7,43.5z"/>
	<g>
		<path d="M85.3,91c0,0-8.9-4.2-13.2-7.1c-1.7-1.1-3.1-1.7-4.3-1.9c0.1,0.2,0.1,0.5,0.2,0.7c0.1,0.4,0.1,0.8-0.1,1.1
			c-0.2,0.4-0.6,0.7-1.1,0.8c-0.1,0-0.3,0-0.4,0c-0.8,0-1.5-0.5-1.7-1.2l0-0.1c-0.1-0.4-0.2-0.8-0.2-1.2
			c-12.8,2.2-19.7,8.4-19.7,8.4s21.1,7.8,24.4,8.9c3.2,1.1,4.2,0.3,4.2,0.3s8.3-3.3,11.6-5.3C88.1,92.5,85.3,91,85.3,91z"/>
	</g>
</g>
<path d="M36.7,4.2c5.5,3.2,7.3,10.2,4.1,15.6l2.3,1.3c3.9-6.7,1.6-15.3-5.1-19.2C31.4-2,22.8,0.3,18.9,7l2.3,1.3
	C24.3,2.8,31.3,1,36.7,4.2z M60.9,42.6l-2.7-10.4l-3.8,4.9l-21.6,5l9.4-19.3l-24-14L0,35.7L27.9,52l2.1-4.3l25.1-7.5L60.9,42.6z"/>
</svg>
