<?xml version="1.0" encoding="utf-8"?>
<!-- Generator: Adobe Illustrator 18.0.0, SVG Export Plug-In . SVG Version: 6.00 Build 0)  -->
<!DOCTYPE svg PUBLIC "-//W3C//DTD SVG 1.1//EN" "http://www.w3.org/Graphics/SVG/1.1/DTD/svg11.dtd">
<svg version="1.1" id="Layer_1" xmlns="http://www.w3.org/2000/svg" xmlns:xlink="http://www.w3.org/1999/xlink" x="0px" y="0px"
	 viewBox="0 0 106.5 99.5" enable-background="new 0 0 106.5 99.5" xml:space="preserve">
<circle cx="17.8" cy="21.9" r="8.5"/>
<path d="M49,29.5c0,0-14.9,7.8-21.3,2.7L7.8,32.5c0,0-17.3,13.6-0.3,18.8v44.9c0,0,5,7.7,9-0.3V64h3v31.7c0,0,4,8.2,9,0V40.1
	c0,0,22.4-1.3,24.9-7.6C53.4,32.5,57.4,29.3,49,29.5z M7.5,40v5.1C5.5,44,4.5,42.3,7.5,40z"/>
<g>
	<path d="M16.5,0v12.2c0-0.1,1-0.2,1.6-0.2c5.5,0,9.7,4.4,9.7,9.9c0,3.9-2.4,7.4-5.8,8.9l5.6-0.1l0.5,0l0.4,0.3
		c1.2,0.9,2.8,1.4,5,1.4c6.5,0,14.7-4.2,14.8-4.3l0.3-0.2l0.3,0c0.3,0,0.6,0,0.8,0c2.3,0,5,0.2,5.9,2l11-6.6l0.4,0.7l-11.2,6.8
		c0,1.1-0.7,2-1.2,2.5c-1.4,3-5.9,5.1-14.1,6.7c-4.2,0.8-8.1,1.2-10.1,1.4V56h76V0H16.5z"/>
</g>
</svg>
